<?xml version="1.0" encoding="UTF-8" standalone="no"?>
<!-- Created with Inkscape (http://www.inkscape.org/) -->

<svg
   width="25.99898mm"
   height="28.870924mm"
   viewBox="0 0 25.99898 28.870924"
   version="1.1"
   id="svg2443"
   inkscape:version="1.1 (c68e22c387, 2021-05-23)"
   sodipodi:docname="ant.svg"
   xmlns:inkscape="http://www.inkscape.org/namespaces/inkscape"
   xmlns:sodipodi="http://sodipodi.sourceforge.net/DTD/sodipodi-0.dtd"
   xmlns="http://www.w3.org/2000/svg"
   xmlns:svg="http://www.w3.org/2000/svg">
  <sodipodi:namedview
     id="namedview2445"
     pagecolor="#ffffff"
     bordercolor="#666666"
     borderopacity="1.0"
     inkscape:pageshadow="2"
     inkscape:pageopacity="0.0"
     inkscape:pagecheckerboard="0"
     inkscape:document-units="mm"
     showgrid="false"
     inkscape:snap-center="true"
     inkscape:snap-object-midpoints="true"
     fit-margin-top="0"
     fit-margin-left="0"
     fit-margin-right="0"
     fit-margin-bottom="0"
     inkscape:zoom="0.9814281"
     inkscape:cx="75.909789"
     inkscape:cy="-110.04372"
     inkscape:window-width="1920"
     inkscape:window-height="992"
     inkscape:window-x="-8"
     inkscape:window-y="-8"
     inkscape:window-maximized="1"
     inkscape:current-layer="layer1" />
  <defs
     id="defs2440" />
  <g
     inkscape:label="Layer 1"
     inkscape:groupmode="layer"
     id="layer1"
     transform="translate(-67.26637,-16.807001)">
    <path
       style="fill:#ff0000;stroke-width:0.999999"
       d="m 77.168219,44.053736 c -0.719106,-0.990557 -0.982133,-1.857809 -0.975245,-3.21556 0.008,-1.576191 0.42435,-2.580617 1.485885,-3.584569 0.512701,-0.484898 0.561845,-0.566264 0.481001,-0.796426 l -0.09004,-0.256351 -1.543497,-0.02297 -1.54349,-0.02297 -1.932572,3.216098 -1.932573,3.216098 -0.933884,0.621462 c -0.51364,0.341804 -1.022933,0.621462 -1.131764,0.621462 -0.281905,0 -0.545405,-0.430003 -0.413975,-0.675575 0.05599,-0.104672 0.462275,-0.426937 0.902795,-0.716147 l 0.80094,-0.525835 1.960516,-3.254725 c 1.078288,-1.790099 2.030126,-3.310821 2.115192,-3.379384 0.109457,-0.08822 0.626359,-0.124659 1.768235,-0.124659 h 1.613566 l 0.06975,-0.70773 c 0.03837,-0.389249 0.05541,-0.717004 0.03779,-0.728341 -0.01755,-0.01134 -0.525572,-0.423146 -1.128931,-0.91513 -0.603352,-0.491984 -1.17362,-0.953487 -1.267263,-1.025564 -0.146719,-0.112937 -0.685019,0.07001 -3.894698,1.323674 -2.048444,0.800098 -3.797385,1.454723 -3.886529,1.454723 -0.352032,0 -0.588047,-0.466135 -0.392228,-0.774649 0.07819,-0.123187 5.25821,-2.178901 7.242111,-2.874065 l 0.992683,-0.347839 0.303783,0.222013 c 0.167076,0.122107 0.812087,0.643913 1.433356,1.15957 0.621269,0.515656 1.157042,0.910092 1.190613,0.876525 0.03356,-0.03357 -0.04441,-0.273217 -0.173308,-0.532552 -0.170898,-0.343862 -0.24722,-0.701017 -0.281905,-1.319207 l -0.04754,-0.847686 -1.65698,-1.212153 -1.65698,-1.212152 -2.991523,-1.146245 c -4.107699,-1.573923 -3.811582,-1.441754 -3.884927,-1.733984 -0.06764,-0.269462 0.163501,-0.629274 0.40422,-0.629274 0.07048,0 1.667893,0.591391 3.549814,1.314204 l 3.421677,1.314205 1.136394,0.832112 c 0.625019,0.457661 1.152914,0.815587 1.17311,0.795392 0.02017,-0.0202 -0.03604,-0.210761 -0.124877,-0.423482 -0.232084,-0.555451 -0.157319,-2.113034 0.132303,-2.756478 L 77.710705,24.789743 76.76654,24.21358 c -0.594745,-0.36294 -0.958914,-0.650404 -0.984032,-0.77677 -0.02192,-0.110333 -0.06159,-0.828892 -0.08822,-1.596797 -0.04994,-1.442189 -0.189266,-2.23892 -0.622841,-3.561626 -0.31105,-0.948899 -0.290125,-1.285782 0.08806,-1.418008 0.225043,-0.07868 0.310925,-0.06049 0.462158,0.09789 0.415214,0.434842 0.955719,2.66456 1.115244,4.600669 0.06247,0.757944 0.12621,1.425667 0.141696,1.483829 0.01551,0.05816 0.348624,0.29129 0.740314,0.518064 l 0.712175,0.412315 0.350263,-0.237698 c 0.532649,-0.361466 0.989034,-0.474688 1.741937,-0.432145 0.57578,0.03254 0.757897,0.08998 1.140675,0.359786 0.250533,0.176589 0.510298,0.317779 0.577258,0.313753 0.06698,-0.004 0.435883,-0.196397 0.819833,-0.427492 0.68606,-0.412929 0.698502,-0.427849 0.721465,-0.865301 0.102344,-1.949691 0.418155,-3.754629 0.885046,-5.058244 0.211778,-0.591313 0.305749,-0.735413 0.513589,-0.787577 0.650391,-0.163237 0.746655,0.305013 0.330073,1.605497 -0.428413,1.33743 -0.622637,2.523307 -0.618546,3.776694 0.0022,0.593178 -0.034,1.176586 -0.07988,1.296463 -0.05016,0.131013 -0.46649,0.434951 -1.043741,0.761924 -0.528194,0.299181 -0.939868,0.590884 -0.914838,0.648231 0.02505,0.05735 0.143945,0.412674 0.26425,0.789616 0.250817,0.785864 0.232521,1.927137 -0.04143,2.582738 l -0.155623,0.372449 0.718036,-0.529093 c 0.394922,-0.291001 0.964863,-0.709723 1.266543,-0.930494 0.41463,-0.303434 1.39321,-0.72553 4.009527,-1.729449 3.385295,-1.298989 3.466583,-1.324408 3.714866,-1.161727 0.296416,0.19422 0.326623,0.463849 0.07726,0.689528 -0.09712,0.08789 -1.653136,0.725539 -3.45781,1.416988 l -3.281226,1.257181 -1.694591,1.240366 -1.694592,1.240366 -0.01383,0.773782 c -0.01107,0.620558 -0.06603,0.876956 -0.277369,1.294804 -0.146712,0.290038 -0.221994,0.5467 -0.169821,0.578944 0.05155,0.03186 0.464234,-0.250395 0.917088,-0.627229 0.452847,-0.376835 1.103857,-0.902033 1.446679,-1.16711 l 0.623323,-0.481954 1.520832,0.573544 c 3.232125,1.21892 6.544658,2.561932 6.659095,2.699816 0.181279,0.218427 0.03524,0.632265 -0.248211,0.703409 -0.174727,0.04385 -1.295068,-0.350003 -3.991865,-1.40334 -2.466583,-0.963417 -3.790155,-1.433297 -3.869368,-1.373658 -0.558,0.420129 -2.512568,2.066323 -2.507843,2.112181 0.0036,0.03211 0.04274,0.338874 0.08768,0.681688 l 0.08166,0.6233 h 1.613565 c 1.141877,0 1.658786,0.03644 1.768242,0.124659 0.08507,0.06856 1.034371,1.5851 2.109565,3.370081 l 1.954895,3.245422 0.856404,0.587727 c 0.789604,0.541887 0.854074,0.611419 0.826531,0.891485 -0.02199,0.22348 -0.09836,0.327687 -0.28904,0.394305 -0.219554,0.0767 -0.356787,0.02494 -0.897554,-0.338571 -1.278315,-0.859298 -1.262385,-0.83899 -3.237003,-4.125522 l -1.889122,-3.144249 -1.517666,-0.004 -1.517665,-0.004 -0.13507,0.257792 c -0.129937,0.247991 -0.111066,0.281802 0.496465,0.889327 1.996497,1.996504 1.991648,5.28366 -0.01077,7.288614 -0.445705,0.44627 -0.763096,0.665672 -1.198112,0.828221 -0.779149,0.291135 -1.655174,0.349743 -2.45049,0.129421 -0.795316,-0.220323 -1.481666,-0.704427 -2.05243,-1.490652 z"
       id="path4720"
       sodipodi:nodetypes="scsscccccsscscssscccsssssscssssccccsssscsccscsccsssccscssscsssssccsssscsssssscccccssscssssscccssscssssscccscsszs" />
    <path
       style="fill:#ff0000;stroke-width:0.999999"
       d="m 77.168219,44.053736 c -0.719106,-0.990557 -0.982133,-1.857809 -0.975245,-3.21556 0.008,-1.576191 0.42435,-2.580617 1.485885,-3.584569 0.512701,-0.484898 0.561845,-0.566264 0.481001,-0.796426 l -0.09004,-0.256351 -1.543497,-0.02297 -1.54349,-0.02297 -1.932572,3.216098 -1.932573,3.216098 -0.933884,0.621462 c -0.51364,0.341804 -1.022933,0.621462 -1.131764,0.621462 -0.281905,0 -0.545405,-0.430003 -0.413975,-0.675575 0.05599,-0.104672 0.462275,-0.426937 0.902795,-0.716147 l 0.80094,-0.525835 1.960516,-3.254725 c 1.078288,-1.790099 2.030126,-3.310821 2.115192,-3.379384 0.109457,-0.08822 0.626359,-0.124659 1.768235,-0.124659 h 1.613566 l 0.06975,-0.70773 c 0.03837,-0.389249 0.05541,-0.717004 0.03779,-0.728341 -0.01755,-0.01134 -0.525572,-0.423146 -1.128931,-0.91513 -0.603352,-0.491984 -1.17362,-0.953487 -1.267263,-1.025564 -0.146719,-0.112937 -0.685019,0.07001 -3.894698,1.323674 -2.048444,0.800098 -3.797385,1.454723 -3.886529,1.454723 -0.352032,0 -0.588047,-0.466135 -0.392228,-0.774649 0.07819,-0.123187 5.25821,-2.178901 7.242111,-2.874065 l 0.992683,-0.347839 0.303783,0.222013 c 0.167076,0.122107 0.812087,0.643913 1.433356,1.15957 0.621269,0.515656 1.157042,0.910092 1.190613,0.876525 0.03356,-0.03357 -0.04441,-0.273217 -0.173308,-0.532552 -0.170898,-0.343862 -0.24722,-0.701017 -0.281905,-1.319207 l -0.04754,-0.847686 -1.65698,-1.212153 -1.65698,-1.212152 -2.991523,-1.146245 c -4.107699,-1.573923 -3.811582,-1.441754 -3.884927,-1.733984 -0.06764,-0.269462 0.163501,-0.629274 0.40422,-0.629274 0.07048,0 1.667893,0.591391 3.549814,1.314204 l 3.421677,1.314205 1.136394,0.832112 c 0.625019,0.457661 1.152914,0.815587 1.17311,0.795392 0.02017,-0.0202 -0.03604,-0.210761 -0.124877,-0.423482 -0.232084,-0.555451 -0.157319,-2.113034 0.132303,-2.756478 L 77.710705,24.789743 76.76654,24.21358 c -0.594745,-0.36294 -0.958914,-0.650404 -0.984032,-0.77677 -0.02192,-0.110333 -0.06159,-0.828892 -0.08822,-1.596797 -0.04994,-1.442189 -0.189266,-2.23892 -0.622841,-3.561626 -0.31105,-0.948899 -0.290125,-1.285782 0.08806,-1.418008 0.225043,-0.07868 0.310925,-0.06049 0.462158,0.09789 0.415214,0.434842 0.955719,2.66456 1.115244,4.600669 0.06247,0.757944 0.12621,1.425667 0.141696,1.483829 0.01551,0.05816 0.348624,0.29129 0.740314,0.518064 l 0.712175,0.412315 0.350263,-0.237698 c 0.532649,-0.361466 0.989034,-0.474688 1.741937,-0.432145 0.57578,0.03254 0.757897,0.08998 1.140675,0.359786 0.250533,0.176589 0.510298,0.317779 0.577258,0.313753 0.06698,-0.004 0.435883,-0.196397 0.819833,-0.427492 0.68606,-0.412929 0.698502,-0.427849 0.721465,-0.865301 0.102344,-1.949691 0.418155,-3.754629 0.885046,-5.058244 0.211778,-0.591313 0.305749,-0.735413 0.513589,-0.787577 0.650391,-0.163237 0.746655,0.305013 0.330073,1.605497 -0.428413,1.33743 -0.622637,2.523307 -0.618546,3.776694 0.0022,0.593178 -0.034,1.176586 -0.07988,1.296463 -0.05016,0.131013 -0.46649,0.434951 -1.043741,0.761924 -0.528194,0.299181 -0.939868,0.590884 -0.914838,0.648231 0.02505,0.05735 0.143945,0.412674 0.26425,0.789616 0.250817,0.785864 0.232521,1.927137 -0.04143,2.582738 l -0.155623,0.372449 0.718036,-0.529093 c 0.394922,-0.291001 0.964863,-0.709723 1.266543,-0.930494 0.41463,-0.303434 1.39321,-0.72553 4.009527,-1.729449 3.385295,-1.298989 3.466583,-1.324408 3.714866,-1.161727 0.296416,0.19422 0.326623,0.463849 0.07726,0.689528 -0.09712,0.08789 -1.653136,0.725539 -3.45781,1.416988 l -3.281226,1.257181 -1.694591,1.240366 -1.694592,1.240366 -0.01383,0.773782 c -0.01107,0.620558 -0.06603,0.876956 -0.277369,1.294804 -0.146712,0.290038 -0.221994,0.5467 -0.169821,0.578944 0.05155,0.03186 0.464234,-0.250395 0.917088,-0.627229 0.452847,-0.376835 1.103857,-0.902033 1.446679,-1.16711 l 0.623323,-0.481954 1.520832,0.573544 c 3.232125,1.21892 6.544658,2.561932 6.659095,2.699816 0.181279,0.218427 0.03524,0.632265 -0.248211,0.703409 -0.174727,0.04385 -1.295068,-0.350003 -3.991865,-1.40334 -2.466583,-0.963417 -3.790155,-1.433297 -3.869368,-1.373658 -0.558,0.420129 -2.512568,2.066323 -2.507843,2.112181 0.0036,0.03211 0.04274,0.338874 0.08768,0.681688 l 0.08166,0.6233 h 1.613565 c 1.141877,0 1.658786,0.03644 1.768242,0.124659 0.08507,0.06856 1.034371,1.5851 2.109565,3.370081 l 1.954895,3.245422 0.856404,0.587727 c 0.789604,0.541887 0.854074,0.611419 0.826531,0.891485 -0.02199,0.22348 -0.09836,0.327687 -0.28904,0.394305 -0.219554,0.0767 -0.356787,0.02494 -0.897554,-0.338571 -1.278315,-0.859298 -1.262385,-0.83899 -3.237003,-4.125522 l -1.889122,-3.144249 -1.517666,-0.004 -1.517665,-0.004 -0.13507,0.257792 c -0.129937,0.247991 -0.111066,0.281802 0.496465,0.889327 1.996497,1.996504 1.991648,5.28366 -0.01077,7.288614 -0.445705,0.44627 -0.763096,0.665672 -1.198112,0.828221 -0.779149,0.291135 -1.655174,0.349743 -2.45049,0.129421 -0.795316,-0.220323 -1.481666,-0.704427 -2.05243,-1.490652 z"
       id="path5211"
       sodipodi:nodetypes="scsscccccsscscssscccsssssscssssccccsssscsccscsccsssccscssscsssssccsssscsssssscccccssscssssscccssscssssscccscsszs" />
  </g>
</svg>
